# xmcd
#
# Track frame offsets: 
#        150
#        19175
#        31820
#        60017
#        78155
#        104750
#        142082
#        145445
#        161290
#        173092
#        189602
#        214762
#        237270
#        260737
#        275260
#        292342
#        319697
#        337995
#
# Disc length: 4621 seconds
#
# Revision: 9
# Processed by: cddbd v1.5.2PL0 Copyright (c) Steve Scherf et al.
# Submitted via: ExactAudioCopyFreeDBPlugin 1.0
#
DISCID=08120b12
DTITLE=Marvin Gaye - Marvin Gaye:  The Master, 1961-1984 [box set]
DYEAR=1995
DGENRE=Soul
TTITLE0=Got to Give it Up, Part 1
TTITLE1=Here, My Dear
TTITLE2=When Did You Stop Loving Me, When Did I Stop Loving You
TTITLE3=Anger
TTITLE4=Anna's Song
TTITLE5=A Funky Space Reincarnation
TTITLE6=When Did You Stop Loving Me, When Did I Stop Loving You (Repri
TTITLE6=se)
TTITLE7=She Needs Me
TTITLE8=Why Did I Choose You
TTITLE9=Life is for Learning
TTITLE10=Funk Me
TTITLE11=Love Me Now or Love Me Later
TTITLE12=Ego Tripping Out
TTITLE13=The Star Spangled Banner
TTITLE14=I Heard it Through the Grapevine (duet with Gladys Knight)
TTITLE15=Rockin' After Midnight
TTITLE16=Sexual Healing
TTITLE17=The Lord's Prayer
EXTD=
EXTT0=
EXTT1=
EXTT2=
EXTT3=
EXTT4=
EXTT5=
EXTT6=
EXTT7=
EXTT8=
EXTT9=
EXTT10=
EXTT11=
EXTT12=
EXTT13=
EXTT14=
EXTT15=
EXTT16=
EXTT17=
PLAYORDER=
